<svg xmlns="http://www.w3.org/2000/svg" xmlns:xlink="http://www.w3.org/1999/xlink" width="500" zoomAndPan="magnify" viewBox="0 0 375 374.999991" height="500" preserveAspectRatio="xMidYMid meet" version="1.2"><defs><clipPath id="ceafd03519"><path d="M 74.441406 81.152344 L 288.941406 81.152344 L 288.941406 314.402344 L 74.441406 314.402344 Z M 74.441406 81.152344 "/></clipPath><clipPath id="59b822c32f"><path d="M 151 215.875 L 213 215.875 L 213 314.125 L 151 314.125 Z M 151 215.875 "/></clipPath></defs><g id="461b3627ec"><g clip-rule="nonzero" clip-path="url(#ceafd03519)"><path style=" stroke:none;fill-rule:nonzero;fill:#000000;fill-opacity:1;" d="M 287.457031 133.878906 C 286.195312 128.175781 283.933594 122.902344 280.558594 118.074219 C 274.875 109.941406 267.347656 103.671875 258.554688 98.644531 C 250.742188 94.175781 242.441406 90.859375 233.757812 88.242188 C 225.476562 85.75 217.03125 84.125 208.464844 82.933594 C 199.574219 81.699219 190.640625 81.222656 181.695312 81.265625 C 172.753906 81.222656 163.820312 81.699219 154.929688 82.933594 C 146.359375 84.125 137.914062 85.75 129.636719 88.242188 C 120.949219 90.859375 112.652344 94.175781 104.839844 98.644531 C 96.050781 103.671875 88.519531 109.941406 82.835938 118.074219 C 79.460938 122.902344 77.199219 128.175781 75.9375 133.878906 C 74.96875 138.261719 74.445312 142.648438 74.910156 147.066406 C 75.742188 155.070312 77.105469 162.996094 78.894531 170.878906 C 80.554688 178.191406 82.519531 185.421875 84.917969 192.53125 C 87.765625 200.96875 91.113281 209.242188 94.957031 217.332031 C 99.871094 227.671875 105.324219 237.738281 111.589844 247.40625 C 118.082031 257.425781 125.140625 267.078125 132.570312 276.480469 C 138.597656 284.109375 144.847656 291.578125 151.570312 298.816406 C 156.28125 303.683594 161.410156 307.894531 167.527344 310.933594 C 172.152344 313.230469 176.890625 314.320312 181.695312 314.179688 C 186.503906 314.320312 191.242188 313.230469 195.867188 310.933594 C 201.984375 307.894531 207.113281 303.683594 211.824219 298.816406 C 218.546875 291.574219 224.792969 284.109375 230.824219 276.480469 C 238.253906 267.078125 245.3125 257.425781 251.804688 247.40625 C 258.070312 237.738281 263.523438 227.671875 268.4375 217.332031 C 272.285156 209.242188 275.625 200.96875 278.476562 192.53125 C 280.875 185.421875 282.839844 178.191406 284.5 170.878906 C 286.289062 163 287.648438 155.070312 288.484375 147.066406 C 288.945312 142.648438 288.421875 138.257812 287.457031 133.878906 Z M 287.457031 133.878906 "/></g><g clip-rule="nonzero" clip-path="url(#59b822c32f)"><path style=" stroke:none;fill-rule:evenodd;fill:#ffffff;fill-opacity:1;" d="M 193.527344 261.363281 C 192.605469 261.019531 191.941406 260.152344 191.898438 259.125 L 183.890625 300.675781 L 186.46875 300.675781 L 186.480469 300.601562 Z M 193.609375 275.09375 C 192.945312 274.875 192.40625 274.386719 192.128906 273.753906 L 187.300781 300.675781 L 189.878906 300.675781 L 189.878906 300.613281 Z M 177.082031 300.675781 L 179.664062 300.675781 L 171.652344 259.125 C 171.613281 260.152344 170.949219 261.019531 170.027344 261.363281 L 177.070312 300.601562 Z M 173.671875 300.675781 L 176.253906 300.675781 L 171.425781 273.753906 C 171.132812 274.378906 170.597656 274.863281 169.941406 275.09375 L 173.671875 300.625 Z M 183.070312 314.113281 L 183.070312 303.328125 L 180.480469 303.328125 L 180.480469 314.125 L 183.070312 314.125 Z M 186.480469 314.113281 L 186.480469 303.328125 L 183.890625 303.328125 L 183.890625 314.125 L 186.480469 314.125 Z M 189.878906 314.113281 L 189.878906 303.328125 L 187.289062 303.328125 L 187.289062 314.125 L 189.878906 314.125 Z M 193.082031 314.113281 L 193.082031 303.328125 L 190.699219 303.328125 L 190.699219 314.125 L 193.082031 314.125 Z M 172.863281 314.113281 L 172.863281 303.328125 L 170.480469 303.328125 L 170.480469 314.125 L 172.863281 314.125 Z M 176.265625 314.113281 L 176.265625 303.328125 L 173.671875 303.328125 L 173.671875 314.125 L 176.265625 314.125 Z M 179.671875 314.113281 L 179.671875 303.328125 L 177.082031 303.328125 L 177.082031 314.125 L 179.671875 314.125 Z M 181.777344 215.875 C 168.359375 215.875 166.667969 223.148438 155.625 224.019531 C 157.445312 232.070312 158.785156 239.09375 159.714844 246.140625 L 157.5 246.140625 C 157.457031 245.105469 157.363281 244.015625 157.175781 242.847656 L 152.027344 242.847656 C 150.910156 246.046875 151.105469 248.609375 152.027344 251.488281 L 157.175781 251.488281 C 157.324219 250.472656 157.4375 249.445312 157.488281 248.378906 L 159.996094 248.378906 C 160.441406 252.109375 160.773438 255.882812 161 259.839844 L 157.5 259.839844 C 157.457031 258.804688 157.363281 257.714844 157.175781 256.542969 L 152.027344 256.542969 C 150.910156 259.746094 151.105469 262.304688 152.027344 265.1875 L 157.175781 265.1875 C 157.324219 264.171875 157.4375 263.144531 157.488281 262.078125 L 161.113281 262.078125 C 161.292969 265.683594 161.375 269.464844 161.394531 273.539062 L 157.5 273.539062 C 157.457031 272.5 157.363281 271.414062 157.175781 270.242188 L 152.027344 270.242188 C 150.910156 273.445312 151.105469 276.003906 152.027344 278.882812 L 157.175781 278.882812 C 157.324219 277.867188 157.4375 276.84375 157.488281 275.777344 L 161.40625 275.777344 C 161.394531 279.683594 161.332031 283.847656 161.207031 288.375 C 167.765625 289.019531 170.480469 292.695312 170.480469 300.449219 L 170.480469 300.664062 L 172.863281 300.664062 L 169.144531 275.207031 C 167.765625 275.195312 166.648438 274.078125 166.648438 272.699219 C 166.648438 271.308594 167.765625 270.191406 169.15625 270.191406 C 169.851562 270.191406 170.472656 270.472656 170.925781 270.925781 L 169.238281 261.507812 L 169.15625 261.507812 C 167.765625 261.507812 166.648438 260.390625 166.648438 259 C 166.648438 257.613281 167.765625 256.492188 169.15625 256.492188 C 170.171875 256.492188 171.042969 257.09375 171.433594 257.964844 L 169.476562 247.789062 C 169.375 247.800781 169.257812 247.808594 169.15625 247.808594 C 167.765625 247.808594 166.648438 246.691406 166.648438 245.300781 C 166.648438 243.914062 167.765625 242.792969 169.15625 242.792969 C 170.542969 242.792969 171.664062 243.914062 171.664062 245.300781 C 171.664062 246.285156 171.09375 247.148438 170.265625 247.550781 L 180.480469 300.59375 L 180.492188 300.664062 L 183.082031 300.664062 L 183.09375 300.59375 L 193.308594 247.550781 C 192.480469 247.148438 191.910156 246.285156 191.910156 245.300781 C 191.910156 243.914062 193.027344 242.792969 194.417969 242.792969 C 195.804688 242.792969 196.925781 243.914062 196.925781 245.300781 C 196.925781 246.691406 195.804688 247.808594 194.417969 247.808594 C 194.3125 247.808594 194.199219 247.800781 194.097656 247.789062 L 192.136719 257.964844 C 192.53125 257.09375 193.402344 256.492188 194.417969 256.492188 C 195.804688 256.492188 196.925781 257.613281 196.925781 259 C 196.925781 260.390625 195.804688 261.507812 194.417969 261.507812 L 194.335938 261.507812 L 192.644531 270.925781 C 193.101562 270.472656 193.722656 270.191406 194.417969 270.191406 C 195.804688 270.191406 196.925781 271.308594 196.925781 272.699219 C 196.925781 274.078125 195.804688 275.195312 194.429688 275.207031 L 190.707031 300.664062 L 193.089844 300.664062 L 193.089844 300.449219 C 193.089844 292.695312 195.804688 289.019531 202.363281 288.375 C 202.242188 283.847656 202.179688 279.683594 202.167969 275.777344 L 206.074219 275.777344 C 206.125 276.84375 206.230469 277.867188 206.386719 278.882812 L 211.535156 278.882812 C 212.457031 276.003906 212.652344 273.445312 211.535156 270.242188 L 206.386719 270.242188 C 206.210938 271.414062 206.105469 272.5 206.0625 273.539062 L 202.167969 273.539062 C 202.1875 269.464844 202.28125 265.683594 202.449219 262.078125 L 206.074219 262.078125 C 206.125 263.144531 206.230469 264.171875 206.386719 265.1875 L 211.535156 265.1875 C 212.457031 262.304688 212.652344 259.746094 211.535156 256.542969 L 206.386719 256.542969 C 206.210938 257.714844 206.105469 258.804688 206.0625 259.839844 L 202.5625 259.839844 C 202.789062 255.882812 203.121094 252.109375 203.566406 248.378906 L 206.074219 248.378906 C 206.125 249.445312 206.230469 250.472656 206.386719 251.488281 L 211.535156 251.488281 C 212.457031 248.609375 212.652344 246.046875 211.535156 242.847656 L 206.386719 242.847656 C 206.210938 244.015625 206.105469 245.105469 206.0625 246.140625 L 203.847656 246.140625 C 204.769531 239.09375 206.117188 232.070312 207.941406 224.019531 C 196.882812 223.148438 195.203125 215.875 181.777344 215.875 Z M 181.777344 215.875 "/></g><g style="fill:#ffffff;fill-opacity:1;"><g transform="translate(92.494732, 175.533209)"><path style="stroke:none" d="M 2.8125 0 L 2.8125 -42.46875 L 6.3125 -42.46875 L 6.3125 -3.1875 L 14.8125 -3.1875 L 14.8125 0 Z M 2.8125 0 "/></g></g><g style="fill:#ffffff;fill-opacity:1;"><g transform="translate(108.687888, 175.533209)"><path style="stroke:none" d="M 12.953125 -10.9375 L 16.359375 -10.9375 C 16.390625 -10.125 16.410156 -9.28125 16.421875 -8.40625 C 16.441406 -7.539062 16.4375 -6.753906 16.40625 -6.046875 C 16.300781 -3.785156 15.757812 -2.148438 14.78125 -1.140625 C 13.8125 -0.128906 12.160156 0.375 9.828125 0.375 C 7.421875 0.375 5.6875 -0.128906 4.625 -1.140625 C 3.5625 -2.148438 2.992188 -3.785156 2.921875 -6.046875 C 2.847656 -7.960938 2.800781 -10.078125 2.78125 -12.390625 C 2.769531 -14.710938 2.769531 -17.023438 2.78125 -19.328125 C 2.800781 -21.628906 2.847656 -23.753906 2.921875 -25.703125 C 3.023438 -28.035156 3.609375 -29.707031 4.671875 -30.71875 C 5.734375 -31.726562 7.429688 -32.234375 9.765625 -32.234375 C 12.035156 -32.234375 13.679688 -31.734375 14.703125 -30.734375 C 15.734375 -29.742188 16.300781 -28.097656 16.40625 -25.796875 C 16.4375 -24.984375 16.460938 -23.613281 16.484375 -21.6875 C 16.503906 -19.757812 16.460938 -17.59375 16.359375 -15.1875 L 6.375 -15.1875 C 6.375 -13.695312 6.378906 -12.195312 6.390625 -10.6875 C 6.410156 -9.1875 6.441406 -7.550781 6.484375 -5.78125 C 6.484375 -4.507812 6.738281 -3.632812 7.25 -3.15625 C 7.757812 -2.675781 8.582031 -2.4375 9.71875 -2.4375 C 10.851562 -2.4375 11.65625 -2.675781 12.125 -3.15625 C 12.601562 -3.632812 12.878906 -4.507812 12.953125 -5.78125 C 12.992188 -7.09375 12.992188 -8.8125 12.953125 -10.9375 Z M 9.765625 -29.40625 C 8.597656 -29.40625 7.757812 -29.148438 7.25 -28.640625 C 6.738281 -28.128906 6.484375 -27.289062 6.484375 -26.125 C 6.441406 -24.5625 6.410156 -23.125 6.390625 -21.8125 C 6.378906 -20.507812 6.375 -19.222656 6.375 -17.953125 L 13.015625 -17.953125 C 13.015625 -19.828125 13.015625 -21.476562 13.015625 -22.90625 C 13.015625 -24.34375 12.992188 -25.414062 12.953125 -26.125 C 12.878906 -27.289062 12.59375 -28.128906 12.09375 -28.640625 C 11.601562 -29.148438 10.828125 -29.40625 9.765625 -29.40625 Z M 9.765625 -29.40625 "/></g></g><g style="fill:#ffffff;fill-opacity:1;"><g transform="translate(127.429464, 175.533209)"><path style="stroke:none" d="M 2.125 -38.234375 L 2.125 -42.46875 L 7.703125 -42.46875 L 7.703125 -38.234375 Z M 3.234375 0 L 3.234375 -31.859375 L 6.75 -31.859375 L 6.75 0 Z M 3.234375 0 "/></g></g><g style="fill:#ffffff;fill-opacity:1;"><g transform="translate(137.251534, 175.533209)"><path style="stroke:none" d="M 5.78125 0 L 1.59375 -31.859375 L 5.203125 -31.859375 L 7.109375 -15.765625 L 8.328125 -2.765625 L 9.234375 -2.765625 L 10.453125 -15.765625 L 12.375 -31.859375 L 16.03125 -31.859375 L 11.78125 0 Z M 5.78125 0 "/></g></g><g style="fill:#ffffff;fill-opacity:1;"><g transform="translate(154.878171, 175.533209)"><path style="stroke:none" d="M 7.015625 0.3125 C 5.304688 0.3125 4.046875 -0.179688 3.234375 -1.171875 C 2.421875 -2.160156 1.945312 -3.644531 1.8125 -5.625 C 1.769531 -6.082031 1.738281 -6.539062 1.71875 -7 C 1.707031 -7.46875 1.71875 -7.929688 1.75 -8.390625 C 1.851562 -10.234375 2.285156 -11.828125 3.046875 -13.171875 C 3.804688 -14.515625 5.160156 -15.753906 7.109375 -16.890625 C 7.859375 -17.304688 8.640625 -17.71875 9.453125 -18.125 C 10.265625 -18.53125 11.078125 -18.929688 11.890625 -19.328125 L 11.890625 -26.015625 C 11.890625 -27.179688 11.664062 -28.035156 11.21875 -28.578125 C 10.78125 -29.128906 9.976562 -29.40625 8.8125 -29.40625 C 7.820312 -29.40625 7.078125 -29.175781 6.578125 -28.71875 C 6.085938 -28.257812 5.820312 -27.394531 5.78125 -26.125 C 5.75 -25.519531 5.734375 -24.703125 5.734375 -23.671875 C 5.734375 -22.648438 5.75 -21.75 5.78125 -20.96875 L 2.34375 -20.96875 C 2.300781 -21.644531 2.269531 -22.441406 2.25 -23.359375 C 2.238281 -24.273438 2.25 -25.085938 2.28125 -25.796875 C 2.382812 -28.066406 2.941406 -29.707031 3.953125 -30.71875 C 4.960938 -31.726562 6.632812 -32.234375 8.96875 -32.234375 C 11.414062 -32.234375 13.085938 -31.691406 13.984375 -30.609375 C 14.890625 -29.523438 15.378906 -27.78125 15.453125 -25.375 L 15.390625 0 L 11.890625 0 L 11.890625 -2.859375 L 11.3125 -2.859375 C 10.914062 -1.835938 10.390625 -1.050781 9.734375 -0.5 C 9.085938 0.0390625 8.179688 0.3125 7.015625 0.3125 Z M 8.234375 -2.390625 C 9.960938 -2.390625 11.179688 -3.398438 11.890625 -5.421875 L 11.890625 -16.40625 C 11.285156 -16.125 10.664062 -15.8125 10.03125 -15.46875 C 9.394531 -15.132812 8.671875 -14.664062 7.859375 -14.0625 C 6.828125 -13.320312 6.144531 -12.488281 5.8125 -11.5625 C 5.476562 -10.644531 5.289062 -9.585938 5.25 -8.390625 C 5.21875 -8.035156 5.207031 -7.632812 5.21875 -7.1875 C 5.238281 -6.75 5.25 -6.300781 5.25 -5.84375 C 5.363281 -4.738281 5.675781 -3.882812 6.1875 -3.28125 C 6.695312 -2.6875 7.378906 -2.390625 8.234375 -2.390625 Z M 8.234375 -2.390625 "/></g></g><g style="fill:#ffffff;fill-opacity:1;"><g transform="translate(173.141924, 175.533209)"><path style="stroke:none" d="M 2.4375 -37.703125 L 2.4375 -42.46875 L 8.4375 -42.46875 L 8.4375 -38.125 L 5.890625 -32.234375 L 3.609375 -32.234375 L 5.625 -37.703125 Z M 2.4375 -37.703125 "/></g></g><g style="fill:#ffffff;fill-opacity:1;"><g transform="translate(184.02584, 175.533209)"><path style="stroke:none" d="M 2.8125 0 L 2.8125 -31.859375 L 6.3125 -31.859375 L 6.3125 -29.046875 L 7.109375 -29.046875 C 7.578125 -30.035156 8.171875 -30.8125 8.890625 -31.375 C 9.617188 -31.945312 10.566406 -32.234375 11.734375 -32.234375 C 13.398438 -32.234375 14.65625 -31.742188 15.5 -30.765625 C 16.351562 -29.796875 16.78125 -28.175781 16.78125 -25.90625 L 16.78125 0 L 13.265625 0 L 13.265625 -26.171875 C 13.234375 -27.335938 13.003906 -28.175781 12.578125 -28.6875 C 12.160156 -29.207031 11.472656 -29.46875 10.515625 -29.46875 C 9.585938 -29.46875 8.742188 -29.179688 7.984375 -28.609375 C 7.222656 -28.046875 6.664062 -27.253906 6.3125 -26.234375 L 6.3125 0 Z M 2.8125 0 "/></g></g><g style="fill:#ffffff;fill-opacity:1;"><g transform="translate(203.723089, 175.533209)"><path style="stroke:none" d=""/></g></g><g style="fill:#ffffff;fill-opacity:1;"><g transform="translate(214.713191, 175.533209)"><path style="stroke:none" d="M 2.8125 0 L 2.8125 -42.46875 L 9.234375 -42.46875 C 11.640625 -42.46875 13.390625 -41.9375 14.484375 -40.875 C 15.585938 -39.820312 16.175781 -38.070312 16.25 -35.625 C 16.351562 -33.25 16.40625 -31.050781 16.40625 -29.03125 C 16.40625 -27.019531 16.351562 -25.039062 16.25 -23.09375 C 16.144531 -19.726562 14.992188 -17.640625 12.796875 -16.828125 L 17.09375 0 L 13.328125 0 L 9.453125 -16.1875 L 6.3125 -16.1875 L 6.3125 0 Z M 6.3125 -19.375 L 9.234375 -19.375 C 10.441406 -19.375 11.316406 -19.65625 11.859375 -20.21875 C 12.410156 -20.789062 12.707031 -21.695312 12.75 -22.9375 C 12.925781 -27.21875 12.925781 -31.5 12.75 -35.78125 C 12.707031 -36.988281 12.410156 -37.875 11.859375 -38.4375 C 11.316406 -39.007812 10.441406 -39.296875 9.234375 -39.296875 L 6.3125 -39.296875 Z M 6.3125 -19.375 "/></g></g><g style="fill:#ffffff;fill-opacity:1;"><g transform="translate(233.189316, 175.533209)"><path style="stroke:none" d="M 9.875 0.375 C 7.394531 0.375 5.648438 -0.15625 4.640625 -1.21875 C 3.628906 -2.28125 3.070312 -4.050781 2.96875 -6.53125 C 2.894531 -8.4375 2.847656 -10.46875 2.828125 -12.625 C 2.816406 -14.789062 2.816406 -16.960938 2.828125 -19.140625 C 2.847656 -21.316406 2.894531 -23.378906 2.96875 -25.328125 C 3.070312 -27.804688 3.628906 -29.578125 4.640625 -30.640625 C 5.648438 -31.703125 7.394531 -32.234375 9.875 -32.234375 C 12.351562 -32.234375 14.085938 -31.691406 15.078125 -30.609375 C 16.066406 -29.523438 16.613281 -27.765625 16.71875 -25.328125 C 16.832031 -22.460938 16.890625 -19.335938 16.890625 -15.953125 C 16.890625 -12.578125 16.832031 -9.4375 16.71875 -6.53125 C 16.613281 -4.082031 16.066406 -2.316406 15.078125 -1.234375 C 14.085938 -0.160156 12.351562 0.375 9.875 0.375 Z M 9.875 -2.4375 C 11.039062 -2.4375 11.878906 -2.679688 12.390625 -3.171875 C 12.910156 -3.671875 13.1875 -4.539062 13.21875 -5.78125 C 13.289062 -8.300781 13.332031 -10.617188 13.34375 -12.734375 C 13.363281 -14.859375 13.363281 -16.984375 13.34375 -19.109375 C 13.332031 -21.234375 13.289062 -23.535156 13.21875 -26.015625 C 13.1875 -27.285156 12.921875 -28.164062 12.421875 -28.65625 C 11.929688 -29.15625 11.082031 -29.40625 9.875 -29.40625 C 8.664062 -29.40625 7.804688 -29.15625 7.296875 -28.65625 C 6.785156 -28.164062 6.515625 -27.285156 6.484375 -26.015625 C 6.410156 -23.535156 6.351562 -21.234375 6.3125 -19.109375 C 6.28125 -16.984375 6.28125 -14.859375 6.3125 -12.734375 C 6.351562 -10.617188 6.410156 -8.300781 6.484375 -5.78125 C 6.515625 -4.539062 6.785156 -3.671875 7.296875 -3.171875 C 7.804688 -2.679688 8.664062 -2.4375 9.875 -2.4375 Z M 9.875 -2.4375 "/></g></g><g style="fill:#ffffff;fill-opacity:1;"><g transform="translate(252.886565, 175.533209)"><path style="stroke:none" d="M 2.8125 0 L 2.8125 -42.46875 L 6.3125 -42.46875 L 6.3125 0 Z M 2.8125 0 "/></g></g><g style="fill:#ffffff;fill-opacity:1;"><g transform="translate(262.018441, 175.533209)"><path style="stroke:none" d="M 2.8125 0 L 2.8125 -42.46875 L 6.3125 -42.46875 L 6.3125 0 Z M 2.8125 0 "/></g></g><g style="fill:#ffffff;fill-opacity:1;"><g transform="translate(119.51128, 201.477409)"><path style="stroke:none" d="M 9.015625 -9.03125 L 9.015625 0 L 8.078125 0 L 8.078125 -4.171875 L 2.421875 -4.171875 L 2.421875 0 L 1.46875 0 L 1.46875 -9.03125 L 2.421875 -9.03125 L 2.421875 -5 L 8.078125 -5 L 8.078125 -9.03125 Z M 9.015625 -9.03125 "/></g></g><g style="fill:#ffffff;fill-opacity:1;"><g transform="translate(132.325366, 201.477409)"><path style="stroke:none" d="M 7.140625 -2.40625 L 2.109375 -2.40625 L 1.015625 0 L 0.03125 0 L 4.15625 -9.03125 L 5.09375 -9.03125 L 9.234375 0 L 8.21875 0 Z M 6.78125 -3.1875 L 4.625 -8.046875 L 2.453125 -3.1875 Z M 6.78125 -3.1875 "/></g></g><g style="fill:#ffffff;fill-opacity:1;"><g transform="translate(143.900824, 201.477409)"><path style="stroke:none" d="M 1.46875 -9.03125 L 2.421875 -9.03125 L 2.421875 -0.828125 L 7.484375 -0.828125 L 7.484375 0 L 1.46875 0 Z M 1.46875 -9.03125 "/></g></g><g style="fill:#ffffff;fill-opacity:1;"><g transform="translate(153.824785, 201.477409)"><path style="stroke:none" d="M 1.46875 -9.03125 L 2.421875 -9.03125 L 2.421875 -0.828125 L 7.484375 -0.828125 L 7.484375 0 L 1.46875 0 Z M 1.46875 -9.03125 "/></g></g><g style="fill:#ffffff;fill-opacity:1;"><g transform="translate(163.748746, 201.477409)"><path style="stroke:none" d=""/></g></g><g style="fill:#ffffff;fill-opacity:1;"><g transform="translate(169.453659, 201.477409)"><path style="stroke:none" d="M 5.421875 0.078125 C 4.523438 0.078125 3.710938 -0.117188 2.984375 -0.515625 C 2.253906 -0.921875 1.6875 -1.472656 1.28125 -2.171875 C 0.875 -2.867188 0.671875 -3.648438 0.671875 -4.515625 C 0.671875 -5.390625 0.875 -6.171875 1.28125 -6.859375 C 1.6875 -7.554688 2.253906 -8.101562 2.984375 -8.5 C 3.710938 -8.90625 4.523438 -9.109375 5.421875 -9.109375 C 6.316406 -9.109375 7.125 -8.910156 7.84375 -8.515625 C 8.5625 -8.117188 9.125 -7.570312 9.53125 -6.875 C 9.945312 -6.175781 10.15625 -5.390625 10.15625 -4.515625 C 10.15625 -3.648438 9.945312 -2.863281 9.53125 -2.15625 C 9.125 -1.457031 8.5625 -0.910156 7.84375 -0.515625 C 7.125 -0.117188 6.316406 0.078125 5.421875 0.078125 Z M 5.421875 -0.78125 C 6.128906 -0.78125 6.769531 -0.941406 7.34375 -1.265625 C 7.925781 -1.585938 8.378906 -2.03125 8.703125 -2.59375 C 9.035156 -3.164062 9.203125 -3.804688 9.203125 -4.515625 C 9.203125 -5.222656 9.035156 -5.863281 8.703125 -6.4375 C 8.378906 -7.007812 7.925781 -7.457031 7.34375 -7.78125 C 6.769531 -8.101562 6.128906 -8.265625 5.421875 -8.265625 C 4.703125 -8.265625 4.050781 -8.101562 3.46875 -7.78125 C 2.894531 -7.457031 2.441406 -7.007812 2.109375 -6.4375 C 1.773438 -5.863281 1.609375 -5.222656 1.609375 -4.515625 C 1.609375 -3.804688 1.773438 -3.164062 2.109375 -2.59375 C 2.441406 -2.03125 2.894531 -1.585938 3.46875 -1.265625 C 4.050781 -0.941406 4.703125 -0.78125 5.421875 -0.78125 Z M 5.421875 -0.78125 "/></g></g><g style="fill:#ffffff;fill-opacity:1;"><g transform="translate(182.603206, 201.477409)"><path style="stroke:none" d="M 2.421875 -8.203125 L 2.421875 -4.65625 L 7.09375 -4.65625 L 7.09375 -3.828125 L 2.421875 -3.828125 L 2.421875 0 L 1.46875 0 L 1.46875 -9.03125 L 7.671875 -9.03125 L 7.671875 -8.203125 Z M 2.421875 -8.203125 "/></g></g><g style="fill:#ffffff;fill-opacity:1;"><g transform="translate(193.094874, 201.477409)"><path style="stroke:none" d=""/></g></g><g style="fill:#ffffff;fill-opacity:1;"><g transform="translate(198.799788, 201.477409)"><path style="stroke:none" d="M 2.421875 -8.203125 L 2.421875 -4.65625 L 7.09375 -4.65625 L 7.09375 -3.828125 L 2.421875 -3.828125 L 2.421875 0 L 1.46875 0 L 1.46875 -9.03125 L 7.671875 -9.03125 L 7.671875 -8.203125 Z M 2.421875 -8.203125 "/></g></g><g style="fill:#ffffff;fill-opacity:1;"><g transform="translate(209.291456, 201.477409)"><path style="stroke:none" d="M 7.140625 -2.40625 L 2.109375 -2.40625 L 1.015625 0 L 0.03125 0 L 4.15625 -9.03125 L 5.09375 -9.03125 L 9.234375 0 L 8.21875 0 Z M 6.78125 -3.1875 L 4.625 -8.046875 L 2.453125 -3.1875 Z M 6.78125 -3.1875 "/></g></g><g style="fill:#ffffff;fill-opacity:1;"><g transform="translate(220.866913, 201.477409)"><path style="stroke:none" d="M 10.859375 -9.03125 L 10.859375 0 L 9.9375 0 L 9.9375 -7.234375 L 6.390625 -1.15625 L 5.9375 -1.15625 L 2.390625 -7.1875 L 2.390625 0 L 1.46875 0 L 1.46875 -9.03125 L 2.265625 -9.03125 L 6.1875 -2.34375 L 10.0625 -9.03125 Z M 10.859375 -9.03125 "/></g></g><g style="fill:#ffffff;fill-opacity:1;"><g transform="translate(235.51313, 201.477409)"><path style="stroke:none" d="M 7.859375 -0.828125 L 7.859375 0 L 1.46875 0 L 1.46875 -9.03125 L 7.671875 -9.03125 L 7.671875 -8.203125 L 2.421875 -8.203125 L 2.421875 -5 L 7.09375 -5 L 7.09375 -4.1875 L 2.421875 -4.1875 L 2.421875 -0.828125 Z M 7.859375 -0.828125 "/></g></g></g></svg>